HIERARCHY
ROOT Hips
{
	OFFSET 0.000000 0.000000 0.000000
	CHANNELS 6 Xposition Yposition Zposition Zrotation Yrotation Xrotation 
	JOINT LHipJoint
	{
		OFFSET 0.000000 0.000000 0.000000
		CHANNELS 3 Zrotation Yrotation Xrotation
		JOINT LeftUpLeg
		{
			OFFSET 1.363060 -1.794630 0.839290
			CHANNELS 3 Zrotation Yrotation Xrotation
			JOINT LeftLeg
			{
				OFFSET 2.448110 -6.726130 0.000000
				CHANNELS 3 Zrotation Yrotation Xrotation
				JOINT LeftFoot
				{
					OFFSET 2.562200 -7.039590 0.000000
					CHANNELS 3 Zrotation Yrotation Xrotation
					JOINT LeftToeBase
					{
						OFFSET 0.157640 -0.433110 2.322550
						CHANNELS 3 Zrotation Yrotation Xrotation
						End Site
						{
							OFFSET 0.000000 0.000000 0.000000
						}
					}
				}
			}
		}
	}
	JOINT RHipJoint
	{
		OFFSET 0.000000 0.000000 0.000000
		CHANNELS 3 Zrotation Yrotation Xrotation
		JOINT RightUpLeg
		{
			OFFSET -1.305520 -1.794630 0.839290
			CHANNELS 3 Zrotation Yrotation Xrotation
			JOINT RightLeg
			{
				OFFSET -2.542530 -6.985550 0.000000
				CHANNELS 3 Zrotation Yrotation Xrotation
				JOINT RightFoot
				{
					OFFSET -2.568260 -7.056230 0.000000
					CHANNELS 3 Zrotation Yrotation Xrotation
					JOINT RightToeBase
					{
						OFFSET -0.164730 -0.452590 2.363150
						CHANNELS 3 Zrotation Yrotation Xrotation
						End Site
						{
							OFFSET 0.000000 0.000000 0.000000
						}
					}
				}
			}
		}
	}
	JOINT LowerBack
	{
		OFFSET 0.000000 0.000000 0.000000
		CHANNELS 3 Zrotation Yrotation Xrotation
		JOINT Spine
		{
			OFFSET 0.028270 2.035590 -0.193380
			CHANNELS 3 Zrotation Yrotation Xrotation
			JOINT Spine1
			{
				OFFSET 0.056720 2.048850 -0.042750
				CHANNELS 3 Zrotation Yrotation Xrotation
				JOINT Neck
				{
					OFFSET 0.000000 0.000000 0.000000
					CHANNELS 3 Zrotation Yrotation Xrotation
					JOINT Neck1
					{
						OFFSET -0.054170 1.746240 0.172020
						CHANNELS 3 Zrotation Yrotation Xrotation
						JOINT Head
						{
							OFFSET 0.104070 1.761360 -0.123970
							CHANNELS 3 Zrotation Yrotation Xrotation
							End Site
							{
								OFFSET 0.000000 0.000000 0.000000
							}
						}
					}
				}
				JOINT LeftShoulder
				{
					OFFSET 0.000000 0.000000 0.000000
					CHANNELS 3 Zrotation Yrotation Xrotation
					JOINT LeftArm
					{
						OFFSET 3.362410 1.200890 -0.311210
						CHANNELS 3 Zrotation Yrotation Xrotation
						JOINT LeftForeArm
						{
							OFFSET 4.983000 -0.000000 -0.000000
							CHANNELS 3 Zrotation Yrotation Xrotation
							JOINT LeftHand
							{
								OFFSET 3.483560 -0.000000 -0.000000
								CHANNELS 3 Zrotation Yrotation Xrotation
								JOINT LeftFingerBase
								{
									OFFSET 0.000000 0.000000 0.000000
									CHANNELS 3 Zrotation Yrotation Xrotation
									JOINT LeftHandIndex1
									{
										OFFSET 0.715260 -0.000000 -0.000000
										CHANNELS 3 Zrotation Yrotation Xrotation
										End Site
										{
											OFFSET 0.000000 0.000000 0.000000
										}
									}
								}
								JOINT LThumb
								{
									OFFSET 0.000000 0.000000 0.000000
									CHANNELS 3 Zrotation Yrotation Xrotation
									End Site
									{
										OFFSET 0.000000 0.000000 0.000000
									}
								}
							}
						}
					}
				}
				JOINT RightShoulder
				{
					OFFSET 0.000000 0.000000 0.000000
					CHANNELS 3 Zrotation Yrotation Xrotation
					JOINT RightArm
					{
						OFFSET -3.136600 1.374050 -0.404650
						CHANNELS 3 Zrotation Yrotation Xrotation
						JOINT RightForeArm
						{
							OFFSET -5.241900 -0.000000 -0.000000
							CHANNELS 3 Zrotation Yrotation Xrotation
							JOINT RightHand
							{
								OFFSET -3.444170 -0.000000 -0.000000
								CHANNELS 3 Zrotation Yrotation Xrotation
								JOINT RightFingerBase
								{
									OFFSET 0.000000 0.000000 0.000000
									CHANNELS 3 Zrotation Yrotation Xrotation
									JOINT RightHandIndex1
									{
										OFFSET -0.622530 -0.000000 -0.000000
										CHANNELS 3 Zrotation Yrotation Xrotation
										End Site
										{
											OFFSET 0.000000 0.000000 0.000000
										}
									}
								}
								JOINT RThumb
								{
									OFFSET 0.000000 0.000000 0.000000
									CHANNELS 3 Zrotation Yrotation Xrotation
									End Site
									{
										OFFSET 0.000000 0.000000 0.000000
									}
								}
							}
						}
					}
				}
			}
		}
	}
}
MOTION
Frames: 4
Frame Time: 0.008333
-18.450943 16.096844 0.257046 90.719483 87.487051 128.143796 -6.891374 0.948786 3.376002 -15.249096 -12.542654 -69.354763 -2.488469 2.169302 38.689856 1.263974 3.619664 -8.372957 0.331400 0.000001 -21.951300 12.529872 -2.968310 -1.580793 4.599349 -5.642986 -7.212797 0.560878 -1.246193 18.146083 -0.157967 9.151713 29.296244 5.473900 -0.000000 -83.099100 -8.775847 3.162175 0.650330 -3.659477 3.429962 -2.667407 -7.808337 3.346737 1.585485 9.304745 6.784674 4.208278 -5.166041 -0.452489 2.558052 0.000000 0.000000 0.000000 -0.488587 3.835262 2.350801 -26.991823 -9.008976 -8.287136 -4.375671 -18.737305 0.000466 4.670198 -0.557944 -0.024626 -0.212107 0.031250 0.000000 0.000000 0.000000 0.000000 0.000000 0.000000 0.000000 24.066704 7.135627 -1.161201 78.194350 26.186572 35.248963 1.646282 39.871177 0.003670 2.228250 11.332351 0.229854 -0.033543 -0.251186 -0.000000 0.000000 0.000000 0.000000 0.000000 0.000000 0.000000 
-18.264777 16.072465 0.262066 80.744140 87.653839 117.811327 -6.721706 0.878713 2.915440 -15.781275 -11.721900 -68.995839 -2.360635 2.347387 40.935399 1.370640 3.945089 -9.378949 0.209000 0.000000 -20.632600 12.909834 -2.886073 -1.651963 3.918411 -6.038993 -7.730689 0.432764 -1.381775 20.435177 -0.256753 10.179424 30.246305 6.277499 -0.000000 -80.574800 -9.097232 3.195895 1.154736 -3.764420 3.462598 -2.564891 -7.923397 3.375300 1.543500 9.274609 7.399178 4.621330 -5.262723 -0.458754 2.634068 0.000000 0.000000 0.000000 -0.710220 3.648164 2.274701 -27.134795 -9.123154 -9.056960 -4.389635 -17.204788 0.000249 5.205680 -0.594598 -0.029061 -0.204724 0.030309 0.000000 0.000000 0.000000 0.000000 0.000000 0.000000 0.000000 24.402810 7.487883 -1.231361 78.266142 26.138936 32.613071 1.680467 36.907810 0.002367 2.059471 11.409813 0.213830 -0.033355 -0.236314 -0.000000 0.000000 0.000000 0.000000 0.000000 0.000000 0.000000 
-18.081802 16.060407 0.265840 71.253092 87.629006 107.962760 -6.571636 0.782202 2.469656 -16.369856 -10.955667 -68.377320 -2.273539 2.457540 42.752005 1.495417 4.313339 -10.558002 0.054101 -0.000000 -19.877701 13.254625 -2.790257 -1.739180 3.172403 -6.483584 -8.407324 0.322168 -1.523870 22.881195 -0.382432 10.856641 31.161151 6.896500 -0.000000 -77.705700 -9.443013 3.204920 1.669311 -3.869991 3.472436 -2.447579 -8.016709 3.382906 1.527862 9.201866 8.029076 5.090822 -5.349151 -0.464460 2.722507 0.000000 0.000000 0.000000 -0.963223 3.437772 2.184894 -27.413884 -9.493157 -10.020744 -4.389947 -15.325386 -0.000582 5.896101 -0.553517 -0.030709 -0.194999 0.031588 0.000000 0.000000 0.000000 0.000000 0.000000 0.000000 0.000000 24.623415 7.807211 -1.326725 78.420941 26.146395 29.457538 1.710887 33.782822 0.001037 1.824763 11.462674 0.190307 -0.032400 -0.220435 0.000000 0.000000 0.000000 0.000000 0.000000 0.000000 0.000000 
-17.901538 16.060345 0.267323 62.986452 87.451304 99.348898 -6.452443 0.681716 2.055896 -16.975709 -10.245505 -67.535639 -2.227138 2.509130 44.116257 1.632941 4.701926 -11.850077 -0.132000 0.000000 -19.644700 13.544102 -2.674270 -1.838299 2.395283 -6.946644 -9.235122 0.229146 -1.670630 25.449428 -0.528961 11.058231 31.996809 7.228900 0.000000 -74.675500 -9.800955 3.200911 2.170415 -3.974242 3.471001 -2.319824 -8.087101 3.381550 1.544270 9.078817 8.647712 5.589786 -5.423880 -0.469399 2.817435 0.000000 0.000000 0.000000 -1.253125 3.235001 2.082440 -27.827407 -10.143441 -11.189446 -4.370480 -13.113557 -0.002156 6.742709 -0.428479 -0.027768 -0.182484 0.035611 0.000000 0.000000 0.000000 0.000000 0.000000 0.000000 0.000000 24.717237 8.083305 -1.438439 78.631491 26.226734 25.760854 1.736824 30.561550 -0.000256 1.473200 11.505134 0.154387 -0.029897 -0.204348 0.000000 0.000000 0.000000 0.000000 0.000000 0.000000 0.000000 
